<svg id="visual" 
viewBox="0 0 960 540" 
xmlns="http://www.w3.org/2000/svg" 
xmlns:xlink="http://www.w3.org/1999/xlink" 
version="1.1">

<rect x="0" y="0" 
fill="#f0f4f7">
</rect>

<defs>
    <linearGradient 
        id="grad1_0" 
        x1="43.8%" 
        y1="100%" 
        x2="100%" 
        y2="0%">
<stop offset="14.444444444444446%" stop-color="#c0678c" 
stop-opacity="1"></stop>

<stop offset="85.55555555555554%" 
stop-color="#c0678c" 
stop-opacity="1">
</stop>
</linearGradient>
</defs><defs>
<linearGradient id="grad1_1" x1="43.8%" y1="100%" x2="100%" y2="0%"><stop offset="14.444444444444446%" stop-color="#c0678c" stop-opacity="1"></stop><stop offset="85.55555555555554%" stop-color="#f0f4f7" stop-opacity="1"></stop></linearGradient></defs><defs><linearGradient id="grad2_0" x1="0%" y1="100%" x2="56.3%" y2="0%"><stop offset="14.444444444444446%" stop-color="#c0678c" stop-opacity="1"></stop><stop offset="85.55555555555554%" stop-color="#c0678c" stop-opacity="1"></stop></linearGradient></defs><defs><linearGradient id="grad2_1" x1="0%" y1="100%" x2="56.3%" y2="0%"><stop offset="14.444444444444446%" stop-color="#f0f4f7" stop-opacity="1"></stop><stop offset="85.55555555555554%" stop-color="#c0678c" stop-opacity="1"></stop></linearGradient></defs><g transform="translate(960, 540)"><path d="M-270 0C-280.5 -14.9 -291 -29.8 -267.7 -35.2C-244.4 -40.7 -187.4 -36.8 -187.4 -50.2C-187.4 -63.7 -244.5 -94.5 -243.9 -101C-243.3 -107.5 -185.1 -89.7 -180.1 -104C-175.2 -118.3 -223.6 -164.7 -212.6 -163.1C-201.7 -161.6 -131.3 -112.1 -119.5 -119.5C-107.7 -126.9 -154.3 -191 -159.5 -207.9C-164.7 -224.7 -128.4 -194.2 -113.5 -196.6C-98.6 -199 -105.1 -234.2 -96.4 -232.8C-87.8 -231.4 -64.1 -193.3 -52.3 -195.1C-40.5 -196.9 -40.7 -238.6 -33.9 -257.8C-27.2 -276.9 -13.6 -273.5 0 -270L0 0Z" fill="#beb5db"></path><path d="M-135 0C-140.2 -7.4 -145.5 -14.9 -133.8 -17.6C-122.2 -20.4 -93.7 -18.4 -93.7 -25.1C-93.7 -31.8 -122.2 -47.3 -122 -50.5C-121.7 -53.8 -92.5 -44.9 -90.1 -52C-87.6 -59.1 -111.8 -82.3 -106.3 -81.6C-100.8 -80.8 -65.7 -56.1 -59.8 -59.8C-53.8 -63.4 -77.2 -95.5 -79.7 -103.9C-82.3 -112.3 -64.2 -97.1 -56.8 -98.3C-49.3 -99.5 -52.5 -117.1 -48.2 -116.4C-43.9 -115.7 -32 -96.7 -26.1 -97.6C-20.2 -98.5 -20.3 -119.3 -17 -128.9C-13.6 -138.5 -6.8 -136.7 0 -135L0 0Z" fill="#c0678c"></path></g><g transform="translate(0, 0)"><path d="M270 0C221.2 6.4 172.5 12.9 157.6 20.8C142.8 28.6 161.8 38 166.1 44.5C170.5 51 160.1 54.7 171.8 71.2C183.6 87.7 217.5 117 207 119.5C196.4 122 141.4 97.6 122.2 93.7C103 89.9 119.7 106.5 137.9 137.9C156.1 169.3 175.7 215.5 164.4 214.2C153 212.9 110.7 164 99.5 172.3C88.3 180.7 108.3 246.3 101 243.9C93.7 241.5 59.1 171 45.3 169C31.5 167 38.5 233.5 34.5 261.7C30.4 290 15.2 280 0 270L0 0Z" fill="#beb5db"></path><path d="M135 0C110.6 3.2 86.2 6.4 78.8 10.4C71.4 14.3 80.9 19 83.1 22.3C85.2 25.5 80 27.3 85.9 35.6C91.8 43.8 108.8 58.5 103.5 59.7C98.2 61 70.7 48.8 61.1 46.9C51.5 44.9 59.9 53.2 68.9 68.9C78 84.7 87.9 107.8 82.2 107.1C76.5 106.4 55.3 82 49.8 86.2C44.2 90.4 54.2 123.2 50.5 122C46.9 120.7 29.5 85.5 22.6 84.5C15.7 83.5 19.3 116.8 17.2 130.9C15.2 145 7.6 140 0 135L0 0Z" fill="#c0678c"></path></g></svg>