<svg id="visual" viewBox="0 0 250 400" width="250" height="400" xmlns="http://www.w3.org/2000/svg" xmlns:xlink="http://www.w3.org/1999/xlink" version="1.1"><rect x="0" y="0" width="250" height="400" fill="#715DF2"></rect><path d="M0 355L28 355L28 373L56 373L56 344L83 344L83 291L111 291L111 314L139 314L139 301L167 301L167 365L194 365L194 318L222 318L222 373L250 373L250 391L250 401L250 401L222 401L222 401L194 401L194 401L167 401L167 401L139 401L139 401L111 401L111 401L83 401L83 401L56 401L56 401L28 401L28 401L0 401Z" fill="#001122" stroke-linecap="square" stroke-linejoin="miter"></path></svg>